<?xml version="1.0" standalone="no"?>
<!DOCTYPE svg PUBLIC "-//W3C//DTD SVG 20010904//EN"
 "http://www.w3.org/TR/2001/REC-SVG-20010904/DTD/svg10.dtd">
<svg version="1.0" xmlns="http://www.w3.org/2000/svg"
 width="671.000000pt" height="288.000000pt" viewBox="0 0 671.000000 288.000000"
 preserveAspectRatio="xMidYMid meet">

<g transform="translate(0.000000,288.000000) scale(0.100000,-0.100000)"
fill="#000000" stroke="none">
<path d="M6487 2663 c-208 -224 -637 -648 -827 -819 -471 -424 -816 -662
-1039 -719 -69 -18 -132 -17 -139 3 -6 18 96 115 114 108 7 -3 13 0 11 6 -1 6
18 23 43 39 48 29 191 89 212 89 19 -1 -19 -21 -87 -47 -33 -12 -51 -22 -40
-23 11 -1 -11 -13 -49 -27 -93 -36 -71 -40 40 -8 130 38 245 87 261 111 33 51
-52 70 -171 39 -86 -22 -222 -97 -303 -164 -64 -54 -78 -61 -149 -76 -93 -19
-315 -24 -356 -7 -17 7 -28 19 -28 31 0 29 -27 51 -64 51 -30 0 -158 -29 -198
-45 -15 -6 -16 -3 -6 23 6 16 8 37 4 47 -15 39 -159 -2 -419 -119 -62 -28 -63
-25 -10 40 18 22 30 44 27 47 -3 3 4 21 17 39 l22 33 -34 -30 c-19 -16 -50
-44 -69 -62 -62 -57 -351 -153 -461 -153 -70 0 -78 17 -40 85 33 59 39 93 17
101 -8 3 -69 -23 -137 -57 -145 -72 -280 -131 -286 -125 -3 3 16 41 41 86 48
86 52 95 36 85 -5 -3 -3 7 5 22 24 45 17 50 -15 11 -58 -70 -274 -187 -352
-191 -40 -2 -43 0 -46 26 -2 15 4 52 13 83 15 53 15 57 -2 76 -9 10 -25 17
-35 15 -12 -4 -19 3 -24 27 -10 47 -31 66 -77 66 -48 0 -118 -41 -171 -101
-20 -21 -39 -39 -44 -39 -4 0 -9 -8 -10 -17 -1 -10 -5 -39 -8 -64 -5 -41 -3
-49 17 -63 50 -34 126 -9 243 79 33 24 61 43 62 42 2 -1 -2 -22 -7 -46 -27
-122 45 -161 187 -101 50 22 145 89 176 125 28 32 21 12 -17 -51 -39 -64 -43
-109 -13 -128 24 -15 117 18 271 95 65 32 120 59 123 59 2 0 0 -9 -6 -19 -17
-33 -12 -86 11 -107 49 -44 266 -1 413 82 43 24 81 44 83 44 3 0 -16 -23 -42
-51 -29 -31 -45 -56 -41 -65 3 -9 6 -18 6 -20 0 -16 66 5 172 56 136 65 358
154 365 146 3 -3 -2 -15 -11 -28 -19 -27 -20 -52 -3 -66 10 -9 39 -3 114 22
112 38 193 50 179 28 -9 -15 23 -50 57 -60 17 -6 70 -13 117 -16 69 -5 103 -1
181 18 52 13 105 28 116 35 31 16 32 15 20 -24 -10 -33 -8 -38 16 -62 24 -24
34 -27 94 -26 229 4 614 257 1174 773 l103 95 -94 -105 c-335 -376 -730 -864
-730 -903 0 -19 66 2 135 42 39 22 88 50 110 62 22 12 56 34 75 49 19 15 47
35 62 44 l26 17 -5 -40 c-7 -51 8 -71 53 -71 61 0 271 87 322 133 l22 20 0
-31 c0 -37 30 -62 75 -62 39 0 113 37 189 95 33 24 61 43 62 42 2 -1 -2 -22
-7 -46 -28 -124 48 -162 192 -98 52 23 84 46 174 122 22 19 51 43 65 55 14 11
-14 -4 -62 -35 -120 -77 -226 -126 -279 -128 -41 -2 -44 0 -47 26 -2 15 4 52
13 83 15 53 15 57 -2 76 -9 10 -25 17 -35 15 -12 -4 -19 3 -24 27 -15 75 -82
89 -166 35 -47 -30 -128 -113 -128 -130 0 -26 -348 -165 -366 -146 -8 7 49 99
73 119 28 23 103 130 97 139 -2 5 0 18 7 30 l11 22 -29 -21 c-35 -25 -80 -74
-143 -155 -37 -48 -64 -68 -152 -118 -124 -69 -230 -120 -236 -114 -16 16 622
745 1254 1432 152 166 275 313 269 323 -3 4 3 14 13 21 16 13 16 13 2 -6 -14
-19 -14 -19 2 -6 10 7 15 18 12 23 -4 5 4 23 16 40 55 75 0 24 -153 -139z
m-4532 -1363 c5 -22 -2 -31 -57 -71 -79 -58 -140 -89 -173 -89 -23 0 -25 3
-19 23 21 70 159 189 200 173 8 -3 14 0 14 6 0 20 28 -14 35 -42z m4140 0 c5
-22 -2 -31 -57 -71 -79 -58 -140 -89 -173 -89 -23 0 -25 3 -19 23 21 70 159
189 200 173 8 -3 14 0 14 6 0 20 28 -14 35 -42z"/>
<path d="M5780 1584 c-80 -100 -87 -114 -72 -140 9 -16 13 -14 42 17 49 54
112 164 108 192 -3 22 -12 13 -78 -69z"/>
<path d="M1002 1273 c-447 -618 -454 -626 -567 -730 -147 -134 -334 -328 -390
-404 -53 -72 -62 -124 -22 -134 38 -10 68 9 154 96 93 96 146 159 319 384 129
169 165 204 433 428 196 164 325 263 405 311 76 46 91 46 82 4 -9 -44 -20 -54
-73 -67 -64 -17 -140 -57 -158 -85 -32 -49 22 -104 91 -93 92 15 203 199 179
294 -18 71 -158 -9 -503 -287 -85 -69 -165 -133 -178 -143 -12 -10 32 64 99
165 147 220 146 218 118 193 -21 -18 -20 -15 6 30 16 28 42 69 56 93 46 71 23
47 -51 -55z m388 -125 c0 -6 -11 -30 -25 -54 -41 -70 -106 -104 -145 -77 -40
28 -22 54 69 101 89 45 101 49 101 30z m-1078 -808 c-44 -60 -214 -249 -230
-255 -7 -3 -3 9 10 28 26 36 237 267 245 267 2 0 -9 -18 -25 -40z"/>
<path d="M1618 1223 c7 -3 16 -2 19 1 4 3 -2 6 -13 5 -11 0 -14 -3 -6 -6z"/>
<path d="M1568 1213 c7 -3 16 -2 19 1 4 3 -2 6 -13 5 -11 0 -14 -3 -6 -6z"/>
<path d="M1518 1203 c7 -3 16 -2 19 1 4 3 -2 6 -13 5 -11 0 -14 -3 -6 -6z"/>
<path d="M1478 1193 c7 -3 16 -2 19 1 4 3 -2 6 -13 5 -11 0 -14 -3 -6 -6z"/>
</g>
</svg>
